<svg xmlns="http://www.w3.org/2000/svg" viewBox="0 0 512 512" fill="none">
  <defs>
    <linearGradient id="g" x1="64" y1="54" x2="430" y2="458" gradientUnits="userSpaceOnUse">
      <stop stop-color="#FFE8F0"/>
      <stop offset="1" stop-color="#E9D9FF"/>
    </linearGradient>
  </defs>
  <rect width="512" height="512" rx="144" fill="url(#g)"/>
  <path d="M154 168c0-30.9 25.1-56 56-56h91c30.9 0 56 25.1 56 56v22c0 22.6-13.7 43.1-34.6 51.8 24.4 10 41.1 33.4 41.1 60.9v41.5c0 22.1-17.9 40-40 40H186c-22.1 0-40-17.9-40-40V168Z" fill="#fff" fill-opacity=".9"/>
  <path d="M218 181h69c19.3 0 35 15.7 35 35s-15.7 35-35 35h-69v-70Zm0 107h84c20.4 0 37 16.6 37 37s-16.6 37-37 37h-84v-74Z" fill="#C27895"/>
</svg>
