<svg xmlns="http://www.w3.org/2000/svg" viewBox="0 0 192 192" fill="none">
  <defs>
    <linearGradient id="g" x1="24" y1="20" x2="160" y2="172" gradientUnits="userSpaceOnUse">
      <stop stop-color="#FFE8F0"/>
      <stop offset="1" stop-color="#E9D9FF"/>
    </linearGradient>
  </defs>
  <rect width="192" height="192" rx="52" fill="url(#g)"/>
  <path d="M58 63c0-11.6 9.4-21 21-21h34c11.6 0 21 9.4 21 21v8c0 8.5-5.1 16.2-12.9 19.5 9.1 3.7 15.4 12.6 15.4 22.9v15.6c0 8.3-6.7 15-15 15h-51c-8.3 0-15-6.7-15-15V63Z" fill="#fff" fill-opacity=".88"/>
  <path d="M82 68h26c7.2 0 13 5.8 13 13s-5.8 13-13 13H82V68Zm0 40h31c7.7 0 14 6.3 14 14s-6.3 14-14 14H82v-28Z" fill="#C27895"/>
</svg>
